<svg width="91" height="38" viewBox="0 0 91 38" fill="none" xmlns="http://www.w3.org/2000/svg">
<g clip-path="url(#clip0_7_23)">
<path d="M20.9207 9.92111C18.1257 6.79279 15.4727 4.68015 15.2359 0.53613C15.2359 0.414247 15.1885 0.332992 15.0938 0.251736C15.0464 0.0485983 14.8096 -0.0732847 14.5727 0.0485983C14.2884 0.0485983 14.0517 0.211109 14.0517 0.495502C8.08258 6.02086 -2.00801 20.0374 10.6881 24.0595C16.4203 25.8878 22.9105 23.4095 24.0475 18.0466C24.6633 15.1621 22.9104 12.1151 20.9207 9.92111ZM10.7354 21.4594C9.36159 20.7687 8.50886 19.3874 8.0825 18.1685C7.893 17.5591 7.79826 16.9498 7.84563 16.3403C8.12987 15.284 8.50886 14.2683 8.93522 13.2526C9.17209 14.1464 9.64583 15.0403 10.3091 15.6902C11.825 17.1123 14.9043 17.9655 15.757 19.7531C16.2781 20.85 14.2411 21.7845 13.3883 22.0282C12.4882 22.2719 11.4933 21.8657 10.7354 21.4594Z" fill="url(#paint0_linear_7_23)"/>
</g>
<path d="M34.9445 4.864C37.1525 4.864 38.7605 5.344 39.7685 6.304C40.7925 7.248 41.3045 8.552 41.3045 10.216C41.3045 10.968 41.1925 11.688 40.9685 12.376C40.7445 13.048 40.3685 13.656 39.8405 14.2C39.3285 14.728 38.6485 15.144 37.8005 15.448C36.9525 15.752 35.9045 15.904 34.6565 15.904H33.0965V22H29.4725V4.864H34.9445ZM34.7525 7.84H33.0965V12.928H34.2965C34.9845 12.928 35.5765 12.84 36.0725 12.664C36.5685 12.488 36.9525 12.208 37.2245 11.824C37.4965 11.44 37.6325 10.944 37.6325 10.336C37.6325 9.488 37.4005 8.864 36.9365 8.464C36.4725 8.048 35.7445 7.84 34.7525 7.84ZM47.7108 14.08C47.7108 14.352 47.6948 14.688 47.6628 15.088C47.6468 15.488 47.6228 15.896 47.5908 16.312C47.5748 16.728 47.5508 17.096 47.5188 17.416C47.4868 17.736 47.4628 17.96 47.4468 18.088L53.4948 8.896H57.7908V22H54.3348V16.768C54.3348 16.336 54.3508 15.864 54.3828 15.352C54.4148 14.824 54.4468 14.336 54.4788 13.888C54.5268 13.424 54.5588 13.072 54.5748 12.832L48.5508 22H44.2548V8.896H47.7108V14.08ZM75.7843 22H71.6562L65.4403 13.312V22H61.8163V4.864H65.4403V13.168L71.5843 4.864H75.4483L69.2083 13.096L75.7843 22Z" fill="#0077B6"/>
<path d="M11.9098 28.588C12.8431 28.588 13.5231 28.7713 13.9498 29.138C14.3765 29.5047 14.5898 30.0213 14.5898 30.688C14.5898 30.9813 14.5398 31.2647 14.4398 31.538C14.3465 31.8047 14.1898 32.0447 13.9698 32.258C13.7498 32.4713 13.4565 32.6413 13.0898 32.768C12.7231 32.888 12.2731 32.948 11.7398 32.948H10.9198V35.728H10.0198V28.588H11.9098ZM11.8298 29.358H10.9198V32.178H11.6398C12.0931 32.178 12.4698 32.1313 12.7698 32.038C13.0698 31.938 13.2931 31.7813 13.4398 31.568C13.5865 31.3547 13.6598 31.0747 13.6598 30.728C13.6598 30.268 13.5131 29.9247 13.2198 29.698C12.9265 29.4713 12.4631 29.358 11.8298 29.358ZM20.6145 33.038C20.6145 33.4847 20.5545 33.8813 20.4345 34.228C20.3212 34.568 20.1545 34.858 19.9345 35.098C19.7212 35.338 19.4578 35.5213 19.1445 35.648C18.8378 35.768 18.4945 35.828 18.1145 35.828C17.7612 35.828 17.4345 35.768 17.1345 35.648C16.8345 35.5213 16.5745 35.338 16.3545 35.098C16.1345 34.858 15.9612 34.568 15.8345 34.228C15.7145 33.8813 15.6545 33.4847 15.6545 33.038C15.6545 32.4447 15.7545 31.9447 15.9545 31.538C16.1545 31.1247 16.4412 30.8113 16.8145 30.598C17.1878 30.378 17.6312 30.268 18.1445 30.268C18.6312 30.268 19.0578 30.378 19.4245 30.598C19.7978 30.8113 20.0878 31.1247 20.2945 31.538C20.5078 31.9447 20.6145 32.4447 20.6145 33.038ZM16.5645 33.038C16.5645 33.458 16.6178 33.8247 16.7245 34.138C16.8378 34.4447 17.0112 34.6813 17.2445 34.848C17.4778 35.0147 17.7745 35.098 18.1345 35.098C18.4945 35.098 18.7912 35.0147 19.0245 34.848C19.2578 34.6813 19.4278 34.4447 19.5345 34.138C19.6478 33.8247 19.7045 33.458 19.7045 33.038C19.7045 32.6113 19.6478 32.248 19.5345 31.948C19.4212 31.648 19.2478 31.418 19.0145 31.258C18.7878 31.0913 18.4912 31.008 18.1245 31.008C17.5778 31.008 17.1812 31.188 16.9345 31.548C16.6878 31.908 16.5645 32.4047 16.5645 33.038ZM25.2792 30.368V31.108H22.8892V35.728H22.0092V30.368H25.2792ZM28.3654 30.278C29.0187 30.278 29.502 30.4213 29.8154 30.708C30.1287 30.9947 30.2854 31.4513 30.2854 32.078V35.728H29.6454L29.4754 34.968H29.4354C29.282 35.1613 29.122 35.3247 28.9554 35.458C28.7954 35.5847 28.6087 35.678 28.3954 35.738C28.1887 35.798 27.9354 35.828 27.6354 35.828C27.3154 35.828 27.0254 35.7713 26.7654 35.658C26.512 35.5447 26.312 35.3713 26.1654 35.138C26.0187 34.898 25.9454 34.598 25.9454 34.238C25.9454 33.7047 26.1554 33.2947 26.5754 33.008C26.9954 32.7147 27.642 32.5547 28.5154 32.528L29.4254 32.498V32.178C29.4254 31.7313 29.3287 31.4213 29.1354 31.248C28.942 31.0747 28.6687 30.988 28.3154 30.988C28.0354 30.988 27.7687 31.0313 27.5154 31.118C27.262 31.198 27.0254 31.2913 26.8054 31.398L26.5354 30.738C26.7687 30.6113 27.0454 30.5047 27.3654 30.418C27.6854 30.3247 28.0187 30.278 28.3654 30.278ZM28.6254 33.138C27.9587 33.1647 27.4954 33.2713 27.2354 33.458C26.982 33.6447 26.8554 33.908 26.8554 34.248C26.8554 34.548 26.9454 34.768 27.1254 34.908C27.312 35.048 27.5487 35.118 27.8354 35.118C28.2887 35.118 28.6654 34.9947 28.9654 34.748C29.2654 34.4947 29.4154 34.108 29.4154 33.588V33.108L28.6254 33.138ZM36.6771 33.638C36.6771 33.698 36.6737 33.7847 36.6671 33.898C36.6671 34.0047 36.6637 34.1213 36.6571 34.248C36.6504 34.368 36.6437 34.4847 36.6371 34.598C36.6304 34.7047 36.6237 34.7913 36.6171 34.858L39.4871 30.368H40.5671V35.728H39.7471V32.568C39.7471 32.4613 39.7471 32.3213 39.7471 32.148C39.7537 31.9747 39.7604 31.8047 39.7671 31.638C39.7737 31.4647 39.7804 31.3347 39.7871 31.248L36.9371 35.728H35.8471V30.368H36.6771V33.638ZM51.5091 35.728H50.4291L47.1991 32.108V35.728H46.2991V28.588H47.1991V32.048L50.3491 28.588H51.3691L48.2691 32.058L51.5091 35.728ZM57.0207 33.038C57.0207 33.4847 56.9607 33.8813 56.8407 34.228C56.7274 34.568 56.5607 34.858 56.3407 35.098C56.1274 35.338 55.8641 35.5213 55.5507 35.648C55.2441 35.768 54.9007 35.828 54.5207 35.828C54.1674 35.828 53.8407 35.768 53.5407 35.648C53.2407 35.5213 52.9807 35.338 52.7607 35.098C52.5407 34.858 52.3674 34.568 52.2407 34.228C52.1207 33.8813 52.0607 33.4847 52.0607 33.038C52.0607 32.4447 52.1607 31.9447 52.3607 31.538C52.5607 31.1247 52.8474 30.8113 53.2207 30.598C53.5941 30.378 54.0374 30.268 54.5507 30.268C55.0374 30.268 55.4641 30.378 55.8307 30.598C56.2041 30.8113 56.4941 31.1247 56.7007 31.538C56.9141 31.9447 57.0207 32.4447 57.0207 33.038ZM52.9707 33.038C52.9707 33.458 53.0241 33.8247 53.1307 34.138C53.2441 34.4447 53.4174 34.6813 53.6507 34.848C53.8841 35.0147 54.1807 35.098 54.5407 35.098C54.9007 35.098 55.1974 35.0147 55.4307 34.848C55.6641 34.6813 55.8341 34.4447 55.9407 34.138C56.0541 33.8247 56.1107 33.458 56.1107 33.038C56.1107 32.6113 56.0541 32.248 55.9407 31.948C55.8274 31.648 55.6541 31.418 55.4207 31.258C55.1941 31.0913 54.8974 31.008 54.5307 31.008C53.9841 31.008 53.5874 31.188 53.3407 31.548C53.0941 31.908 52.9707 32.4047 52.9707 33.038ZM62.9454 30.368V35.728H62.0654V31.118H59.2954V35.728H58.4154V30.368H62.9454ZM64.6557 35.728V30.368H65.5357V32.568H66.9257C67.3923 32.568 67.7757 32.6247 68.0757 32.738C68.3757 32.8513 68.599 33.0213 68.7457 33.248C68.8923 33.468 68.9657 33.748 68.9657 34.088C68.9657 34.4213 68.8923 34.7113 68.7457 34.958C68.6057 35.2047 68.3823 35.3947 68.0757 35.528C67.7757 35.6613 67.379 35.728 66.8857 35.728H64.6557ZM66.8057 35.018C67.1857 35.018 67.4957 34.9547 67.7357 34.828C67.9757 34.6947 68.0957 34.4647 68.0957 34.138C68.0957 33.8113 67.9857 33.5913 67.7657 33.478C67.5457 33.358 67.229 33.298 66.8157 33.298H65.5357V35.018H66.8057ZM69.8557 35.728V30.368H70.7357V35.728H69.8557ZM76.1389 31.108H74.3889V35.728H73.5189V31.108H71.7889V30.368H76.1389V31.108ZM79.2247 30.278C79.8781 30.278 80.3614 30.4213 80.6747 30.708C80.9881 30.9947 81.1447 31.4513 81.1447 32.078V35.728H80.5047L80.3347 34.968H80.2947C80.1414 35.1613 79.9814 35.3247 79.8147 35.458C79.6547 35.5847 79.4681 35.678 79.2547 35.738C79.0481 35.798 78.7947 35.828 78.4947 35.828C78.1747 35.828 77.8847 35.7713 77.6247 35.658C77.3714 35.5447 77.1714 35.3713 77.0247 35.138C76.8781 34.898 76.8047 34.598 76.8047 34.238C76.8047 33.7047 77.0147 33.2947 77.4347 33.008C77.8547 32.7147 78.5014 32.5547 79.3747 32.528L80.2847 32.498V32.178C80.2847 31.7313 80.1881 31.4213 79.9947 31.248C79.8014 31.0747 79.5281 30.988 79.1747 30.988C78.8947 30.988 78.6281 31.0313 78.3747 31.118C78.1214 31.198 77.8847 31.2913 77.6647 31.398L77.3947 30.738C77.6281 30.6113 77.9047 30.5047 78.2247 30.418C78.5447 30.3247 78.8781 30.278 79.2247 30.278ZM79.4847 33.138C78.8181 33.1647 78.3547 33.2713 78.0947 33.458C77.8414 33.6447 77.7147 33.908 77.7147 34.248C77.7147 34.548 77.8047 34.768 77.9847 34.908C78.1714 35.048 78.4081 35.118 78.6947 35.118C79.1481 35.118 79.5247 34.9947 79.8247 34.748C80.1247 34.4947 80.2747 34.108 80.2747 33.588V33.108L79.4847 33.138Z" fill="#4E4D53"/>
<defs>
<linearGradient id="paint0_linear_7_23" x1="14.3751" y1="-3.05176e-05" x2="14.3751" y2="24.656" gradientUnits="userSpaceOnUse">
<stop offset="0.515625" stop-color="#00B4D8"/>
<stop offset="1" stop-color="#0077B6"/>
</linearGradient>
<clipPath id="clip0_7_23">
<rect width="28.75" height="24.656" fill="white"/>
</clipPath>
</defs>
</svg>
