<svg width="29" height="25" viewBox="0 0 29 25" fill="none" xmlns="http://www.w3.org/2000/svg">
<g clip-path="url(#clip0_7_3)">
<path d="M20.9207 9.92111C18.1257 6.79279 15.4727 4.68015 15.2359 0.53613C15.2359 0.414247 15.1885 0.332992 15.0938 0.251736C15.0464 0.0485983 14.8096 -0.0732847 14.5727 0.0485983C14.2884 0.0485983 14.0517 0.211109 14.0517 0.495502C8.08258 6.02086 -2.00801 20.0374 10.6881 24.0595C16.4203 25.8878 22.9105 23.4095 24.0475 18.0466C24.6633 15.1621 22.9104 12.1151 20.9207 9.92111ZM10.7354 21.4594C9.36159 20.7687 8.50886 19.3874 8.0825 18.1685C7.893 17.5591 7.79826 16.9498 7.84563 16.3403C8.12987 15.284 8.50886 14.2683 8.93522 13.2526C9.17209 14.1464 9.64583 15.0403 10.3091 15.6902C11.825 17.1123 14.9043 17.9655 15.757 19.7531C16.2781 20.85 14.2411 21.7845 13.3883 22.0282C12.4882 22.2719 11.4933 21.8657 10.7354 21.4594Z" fill="url(#paint0_linear_7_3)"/>
</g>
<defs>
<linearGradient id="paint0_linear_7_3" x1="14.3751" y1="-3.05176e-05" x2="14.3751" y2="24.656" gradientUnits="userSpaceOnUse">
<stop offset="0.515625" stop-color="#00B4D8"/>
<stop offset="1" stop-color="#0077B6"/>
</linearGradient>
<clipPath id="clip0_7_3">
<rect width="28.75" height="24.656" fill="white"/>
</clipPath>
</defs>
</svg>
