<svg width="17" height="16" viewBox="0 0 17 16" fill="none" xmlns="http://www.w3.org/2000/svg">
<path d="M1 6.9844C1 5.95931 1 5.44677 1.20266 5.05664C1.37343 4.72788 1.64149 4.45983 1.97025 4.28905C2.36038 4.0864 2.87292 4.0864 3.898 4.0864H13.102C14.1271 4.0864 14.6396 4.0864 15.0298 4.28905C15.3585 4.45983 15.6266 4.72788 15.7973 5.05664C16 5.44677 16 5.95931 16 6.9844V8.90679C16 9.93188 16 10.4444 15.7973 10.8345C15.6266 11.1633 15.3585 11.4314 15.0298 11.6021C14.6396 11.8048 14.1271 11.8048 13.102 11.8048H3.898C2.87292 11.8048 2.36038 11.8048 1.97025 11.6021C1.64149 11.4314 1.37343 11.1633 1.20266 10.8345C1 10.4444 1 9.93188 1 8.90679V6.9844Z" stroke="#00B4D8"/>
<path d="M1 6.65599L16 6.65599" stroke="#00B4D8" stroke-linecap="round"/>
<ellipse cx="3.5" cy="9.6608" rx="0.5" ry="0.4288" fill="#00B4D8"/>
</svg>
