<svg width="18" height="20" viewBox="0 0 18 20" fill="none" xmlns="http://www.w3.org/2000/svg">
<path d="M0.75 9.75773C0.75 8.23489 0.75 7.47348 1.05877 6.80419C1.36754 6.13489 1.94741 5.63937 3.10716 4.64832L4.23216 3.68697C6.32839 1.89566 7.37651 1 8.625 1C9.87349 1 10.9216 1.89566 13.0178 3.68697L14.1428 4.64832C15.3026 5.63937 15.8825 6.13489 16.1912 6.80419C16.5 7.47348 16.5 8.23489 16.5 9.75773V14.5137C16.5 16.6285 16.5 17.686 15.841 18.343C15.182 19 14.1213 19 12 19H5.25C3.12868 19 2.06802 19 1.40901 18.343C0.75 17.686 0.75 16.6285 0.75 14.5137V9.75773Z" stroke="#9EA0A5"/>
<path d="M11.25 19V13.25C11.25 12.6977 10.8023 12.25 10.25 12.25H7C6.44772 12.25 6 12.6977 6 13.25V19" stroke="#9EA0A5" stroke-linecap="round" stroke-linejoin="round"/>
</svg>
