<svg width="23" height="28" viewBox="0 0 23 28" fill="none" xmlns="http://www.w3.org/2000/svg">
<path d="M11.5 28C17.7336 28 23 23.3786 23 17.4284C23 15.3133 22.3734 13.2095 21.4528 11.2531C21.1541 11.6702 20.7847 12.0323 20.3618 12.3205C21.0951 13.9926 21.5625 15.726 21.5625 17.4284C21.5625 22.481 17.0574 26.5769 11.5 26.5769C5.94263 26.5769 1.4375 22.481 1.4375 17.4284C1.4375 10.9949 8.11283 4.11717 10.5896 1.78674C11.1049 1.30189 11.8951 1.30189 12.4104 1.78674C13.0327 2.37223 13.9199 3.24475 14.8998 4.32514C15.1253 3.7327 15.3205 3.23981 15.4999 2.86437C14.6754 1.98179 13.9402 1.26279 13.4008 0.755223C12.3306 -0.251743 10.6694 -0.251739 9.59925 0.755224C8.32568 1.95356 5.96103 4.33049 3.90479 7.25613C1.87554 10.1434 0 13.769 0 17.4284C0 23.3786 5.26642 28 11.5 28Z" fill="#0077B6"/>
<path fill-rule="evenodd" clip-rule="evenodd" d="M17.671 1.68181C17.9413 1.64827 18.2196 1.70702 18.4509 1.83953C18.755 2.01365 18.8886 2.30226 18.9538 2.50289C19.0224 2.71395 19.0568 2.95739 19.0776 3.20357C19.1188 3.69056 19.1188 4.36685 19.1187 5.2051V5.24278C19.1187 5.33069 19.1511 5.39689 19.1863 5.4356C19.2205 5.47312 19.2484 5.4779 19.2625 5.4779C19.2766 5.4779 19.3045 5.47312 19.3387 5.4356C19.3739 5.39689 19.4062 5.33069 19.4062 5.24278C19.4062 4.67858 19.7735 4.21554 20.2942 4.10279C20.8371 3.98522 21.3781 4.28642 21.5714 4.84909C21.7688 5.42371 21.9431 5.97835 22.0688 6.46556C22.1907 6.93801 22.2812 7.3998 22.2812 7.76718C22.2812 9.83208 20.7402 11.6343 18.6875 11.6343C18.0238 11.6343 17.4136 11.4459 16.8917 11.1211L16.8511 11.1336L16.836 11.0857C15.7755 10.3977 15.0938 9.14057 15.0938 7.76718C15.0938 7.37487 15.1973 6.87107 15.3352 6.35529C15.4775 5.82261 15.6739 5.21493 15.8936 4.59021L15.9067 4.55301C16.1762 3.7867 16.3948 3.16489 16.5914 2.73203C16.6907 2.51338 16.804 2.29736 16.942 2.1232C17.0747 1.95564 17.3097 1.72664 17.671 1.68181ZM16.5312 7.76718C16.5312 8.00945 16.5613 8.24018 16.6167 8.45624C16.6928 8.22939 16.7961 8.01014 16.9261 7.8034C17.4728 6.93347 18.7519 6.93347 19.2986 7.8034C19.695 8.43409 19.8438 9.18125 19.7267 9.90518C20.3754 9.49992 20.8438 8.72357 20.8438 7.76718C20.8438 7.58771 20.7928 7.27036 20.676 6.81771C20.6304 6.64095 20.5769 6.4514 20.5167 6.25161C20.2388 6.63611 19.7997 6.901 19.2625 6.901C18.3212 6.901 17.6812 6.08775 17.6812 5.24278C17.6812 4.69102 17.681 4.24378 17.6722 3.88339C17.554 4.1977 17.4174 4.58551 17.2512 5.05812C17.0377 5.66512 16.8542 6.23519 16.7249 6.71921C16.591 7.22014 16.5312 7.57198 16.5312 7.76718ZM18.0293 10.0924C18.079 10.1106 18.1293 10.1269 18.1801 10.1411L18.2533 9.90816C18.3896 9.47456 18.3378 9.00545 18.1124 8.61223C17.8869 9.00545 17.8351 9.47456 17.9714 9.90816L18.0293 10.0924Z" fill="#0077B6"/>
<path d="M6.46875 16.6151C6.46875 16.2222 6.14696 15.9036 5.75 15.9036C5.35305 15.9036 5.03125 16.2222 5.03125 16.6151C5.03125 17.4561 5.19857 18.2889 5.52365 19.0658C5.84874 19.8428 6.32522 20.5488 6.9259 21.1434C7.52658 21.7381 8.23969 22.2098 9.02452 22.5316C9.80934 22.8535 10.6505 23.0191 11.5 23.0191C11.897 23.0191 12.2188 22.7005 12.2188 22.3075C12.2188 21.9146 11.897 21.596 11.5 21.596C10.8393 21.596 10.185 21.4672 9.57462 21.2169C8.9642 20.9665 8.40956 20.5997 7.94237 20.1371C7.47517 19.6746 7.10458 19.1255 6.85173 18.5212C6.59889 17.9169 6.46875 17.2692 6.46875 16.6151Z" fill="#0077B6"/>
</svg>
