<svg width="20" height="20" viewBox="0 0 20 20" fill="none" xmlns="http://www.w3.org/2000/svg">
<path d="M3.33334 11.5C3.33334 9.61438 3.33334 8.67157 3.91912 8.08579C4.50491 7.5 5.44772 7.5 7.33334 7.5H12.6667C14.5523 7.5 15.4951 7.5 16.0809 8.08579C16.6667 8.67157 16.6667 9.61438 16.6667 11.5V11.5C16.6667 14.3284 16.6667 15.7426 15.788 16.6213C14.9093 17.5 13.4951 17.5 10.6667 17.5H9.33333C6.50491 17.5 5.0907 17.5 4.21202 16.6213C3.33334 15.7426 3.33334 14.3284 3.33334 11.5V11.5Z" stroke="#9EA0A5"/>
<path d="M13.3333 6.66667V5.83333C13.3333 3.99239 11.841 2.5 10 2.5V2.5C8.15906 2.5 6.66667 3.99239 6.66667 5.83333V6.66667" stroke="#9EA0A5" stroke-linecap="round"/>
<ellipse cx="10" cy="12.5" rx="1.66667" ry="1.66667" fill="#9EA0A5"/>
</svg>
