<svg width="13" height="13" viewBox="0 0 13 13" fill="none" xmlns="http://www.w3.org/2000/svg">
<path d="M10.0404 8.37377L11.5702 9.90349C11.8076 10.1409 11.8076 10.5258 11.5702 10.7632C10.2867 12.0467 8.25475 12.1911 6.80266 11.102L6.06418 10.5481C4.69501 9.52126 3.47874 8.30499 2.45187 6.93582L1.898 6.19734C0.808938 4.74525 0.953343 2.71332 2.23682 1.42985C2.47422 1.19245 2.85912 1.19245 3.09651 1.42985L4.62623 2.95956C5.01675 3.35008 5.01675 3.98325 4.62623 4.37377L4.18116 4.81884C4.07297 4.92703 4.04615 5.09231 4.11458 5.22916C4.90568 6.81137 6.18863 8.09432 7.77084 8.88542C7.90769 8.95385 8.07298 8.92703 8.18116 8.81884L8.62623 8.37377C9.01675 7.98325 9.64992 7.98325 10.0404 8.37377Z" stroke="#9EA0A5"/>
</svg>
