<svg width="24" height="24" viewBox="0 0 24 24" fill="none" xmlns="http://www.w3.org/2000/svg">
<path d="M22 12L22.3904 11.6877L22.6403 12L22.3904 12.3123L22 12ZM13 12.5C12.7239 12.5 12.5 12.2761 12.5 12C12.5 11.7239 12.7239 11.5 13 11.5V12.5ZM18.3904 6.68765L22.3904 11.6877L21.6096 12.3123L17.6096 7.31235L18.3904 6.68765ZM22.3904 12.3123L18.3904 17.3123L17.6096 16.6877L21.6096 11.6877L22.3904 12.3123ZM22 12.5H13V11.5H22V12.5Z" fill="#0077B6"/>
<path d="M10.6576 20.5571L10.5754 20.0639L10.6576 20.5571ZM3.06087 20.7477L2.73769 21.1292L3.06087 20.7477ZM8.98639 3.1644L9.06859 2.6712L8.98639 3.1644ZM3.06087 3.25232L2.73769 2.87081L3.06087 3.25232ZM10.5754 3.93613L8.90419 3.6576L9.06859 2.6712L10.7398 2.94974L10.5754 3.93613ZM2.5 9.08276V14.9172H1.5V9.08276H2.5ZM8.90419 20.3424L10.5754 20.0639L10.7398 21.0503L9.06859 21.3288L8.90419 20.3424ZM13.5 8.13193V7.38851H14.5V8.13193H13.5ZM13.5 16.6115V16.066H14.5V16.6115H13.5ZM10.5754 20.0639C11.3862 19.9287 11.9485 19.8341 12.37 19.7086C12.7782 19.5871 12.9941 19.4529 13.1445 19.2753L13.9075 19.9217C13.5841 20.3035 13.1639 20.5156 12.6554 20.667C12.1602 20.8144 11.5253 20.9193 10.7398 21.0503L10.5754 20.0639ZM14.5 16.6115C14.5 17.4078 14.5009 18.0514 14.4369 18.564C14.3712 19.0905 14.231 19.5398 13.9075 19.9217L13.1445 19.2753C13.295 19.0977 13.3919 18.8627 13.4446 18.4401C13.4991 18.0037 13.5 17.4335 13.5 16.6115H14.5ZM2.5 14.9172C2.5 16.5764 2.50119 17.7672 2.62765 18.6581C2.75214 19.5352 2.98688 20.0297 3.38406 20.3662L2.73769 21.1292C2.07399 20.567 1.7783 19.7901 1.63757 18.7986C1.49881 17.821 1.5 16.5459 1.5 14.9172H2.5ZM9.06859 21.3288C7.46212 21.5965 6.20455 21.8073 5.21738 21.8312C4.21624 21.8554 3.40139 21.6914 2.73769 21.1292L3.38406 20.3662C3.78124 20.7026 4.3076 20.8529 5.19323 20.8315C6.09282 20.8098 7.26757 20.6152 8.90419 20.3424L9.06859 21.3288ZM8.90419 3.6576C7.26757 3.38483 6.09282 3.19024 5.19323 3.16851C4.3076 3.14711 3.78124 3.29737 3.38406 3.63383L2.73769 2.87081C3.40139 2.30858 4.21624 2.14461 5.21738 2.1688C6.20455 2.19265 7.46212 2.40346 9.06859 2.6712L8.90419 3.6576ZM1.5 9.08276C1.5 7.45413 1.49881 6.17901 1.63757 5.20135C1.7783 4.20986 2.07399 3.43305 2.73769 2.87081L3.38406 3.63383C2.98688 3.97029 2.75214 4.46479 2.62765 5.34188C2.50119 6.23281 2.5 7.42357 2.5 9.08276H1.5ZM10.7398 2.94974C11.5253 3.08065 12.1602 3.18555 12.6554 3.33297C13.1639 3.48436 13.5841 3.69646 13.9075 4.07832L13.1445 4.72469C12.9941 4.54706 12.7782 4.41289 12.37 4.29139C11.9485 4.16591 11.3862 4.07127 10.5754 3.93613L10.7398 2.94974ZM13.5 7.38851C13.5 6.5665 13.4991 5.99627 13.4446 5.55988C13.3919 5.13735 13.295 4.90233 13.1445 4.72469L13.9075 4.07832C14.231 4.46017 14.3712 4.90948 14.4369 5.43599C14.5009 5.94865 14.5 6.59218 14.5 7.38851H13.5Z" fill="#0077B6"/>
</svg>
