<svg width="38" height="38" viewBox="0 0 38 38" fill="none" xmlns="http://www.w3.org/2000/svg">
<path d="M11.4368 23.847H18.5L18.5 33.0177L18.5 33.0508C18.4999 33.3885 18.4999 33.6881 18.5265 33.9079C18.5402 34.0208 18.5656 34.16 18.6281 34.2881C18.6983 34.4318 18.8305 34.5879 19.0508 34.6486C19.2712 34.7093 19.4646 34.6429 19.5985 34.5553C19.7178 34.4773 19.8109 34.3707 19.8804 34.2807C20.0158 34.1056 20.1692 33.8482 20.342 33.5581L20.359 33.5297L28.7106 19.5162L28.7322 19.4801C29.1135 18.8402 29.4288 18.3112 29.6069 17.8783C29.7897 17.4337 29.8868 16.952 29.6274 16.4954C29.368 16.0388 28.9045 15.8756 28.429 15.805C27.9659 15.7363 27.35 15.7363 26.6051 15.7364H26.5631H19.5V6.56562L19.5 6.53249C19.5 6.19484 19.5 5.89522 19.4734 5.67543C19.4597 5.56256 19.4344 5.42337 19.3718 5.29523C19.3016 5.1515 19.1694 4.99541 18.9491 4.93473C18.7287 4.87404 18.5353 4.94048 18.4014 5.02801C18.2821 5.10605 18.189 5.21264 18.1195 5.30259C17.9841 5.47776 17.8307 5.73515 17.6579 6.02521L17.6409 6.05366L9.28929 20.0671L9.26775 20.1032C8.88639 20.7431 8.57108 21.2721 8.39304 21.7051C8.21021 22.1496 8.11309 22.6313 8.37252 23.088C8.63196 23.5446 9.09546 23.7078 9.57094 23.7783C10.034 23.847 10.6499 23.847 11.3948 23.847H11.4368Z" stroke="#0077B6"/>
</svg>
