<svg width="38" height="38" viewBox="0 0 38 38" fill="none" xmlns="http://www.w3.org/2000/svg">
<path d="M24.1398 19.3118L24.4646 18.9317L24.1398 19.3118ZM13.8603 19.3118L13.5355 18.9317L13.8603 19.3118ZM14.75 7.75C14.75 6.36929 15.8693 5.25 17.25 5.25V4.25C15.317 4.25 13.75 5.817 13.75 7.75H14.75ZM14.75 18.4999V7.75H13.75V18.4999H14.75ZM11.5834 25.3333C11.5834 23.0751 12.592 21.053 14.1851 19.6919L13.5355 18.9317C11.7295 20.4746 10.5834 22.7704 10.5834 25.3333H11.5834ZM19 32.75C14.9039 32.75 11.5834 29.4294 11.5834 25.3333H10.5834C10.5834 29.9817 14.3516 33.75 19 33.75V32.75ZM26.4167 25.3333C26.4167 29.4294 23.0962 32.75 19 32.75V33.75C23.6484 33.75 27.4167 29.9817 27.4167 25.3333H26.4167ZM23.815 19.6919C25.4081 21.053 26.4167 23.0751 26.4167 25.3333H27.4167C27.4167 22.7704 26.2705 20.4746 24.4646 18.9317L23.815 19.6919ZM23.25 7.75V18.4999H24.25V7.75H23.25ZM20.75 5.25C22.1308 5.25 23.25 6.36929 23.25 7.75H24.25C24.25 5.817 22.683 4.25 20.75 4.25V5.25ZM17.25 5.25H20.75V4.25H17.25V5.25ZM24.4646 18.9317C24.3235 18.8111 24.25 18.6517 24.25 18.4999H23.25C23.25 18.977 23.4778 19.4039 23.815 19.6919L24.4646 18.9317ZM13.75 18.4999C13.75 18.6517 13.6765 18.8111 13.5355 18.9317L14.1851 19.6919C14.5222 19.4039 14.75 18.977 14.75 18.4999H13.75Z" fill="#0077B6"/>
<circle cx="19" cy="25.3333" r="4.25" stroke="#0077B6"/>
</svg>
