<svg width="17" height="15" viewBox="0 0 17 15" fill="none" xmlns="http://www.w3.org/2000/svg">
<path d="M3.6667 3.21856C2.5369 4.18747 1.81918 5.47599 1.65896 6.87107C1.4986 8.26736 1.9097 9.65964 2.80496 10.8087C3.69844 11.9555 5.01626 12.7876 6.52355 13.1797C8.03087 13.5718 9.64922 13.504 11.107 12.9862C12.5648 12.4683 13.7854 11.5269 14.5466 10.3057C15.3094 9.0817 15.5583 7.65871 15.2396 6.28443C14.9213 4.91234 14.0624 3.69485 12.832 2.82891C11.6027 1.96366 10.0716 1.4968 8.5 1.4968" stroke="#00B4D8" stroke-linecap="round"/>
<path d="M8.49998 7.464L4.95831 4.42667" stroke="#00B4D8" stroke-linecap="round"/>
<path d="M8.5 1.69308V3.21175" stroke="#00B4D8" stroke-linecap="round"/>
<path d="M14.875 7.46402L13.4583 7.46402" stroke="#00B4D8" stroke-linecap="round"/>
<path d="M8.5 11.7163V12.9312" stroke="#00B4D8" stroke-linecap="round"/>
<path d="M3.54169 7.46402L2.12502 7.46402" stroke="#00B4D8" stroke-linecap="round"/>
</svg>
